<svg width="128" height="128" fill="none" xmlns="http://www.w3.org/2000/svg"><g clip-path="url(#a)"><path d="M122 0H6a6 6 0 0 0-6 6v116a6 6 0 0 0 6 6h116a6 6 0 0 0 6-6V6a6 6 0 0 0-6-6Z" fill="#3178C6"/><path fill-rule="evenodd" clip-rule="evenodd" d="m69.953 100.728-7.74 14.946c1.778 2.499 4.158 4.916 7.142 7.25 2.983 2.336 6.307 4.451 9.97 6.348 3.57 1.849 7.14 3.263 10.707 4.241 3.568.979 6.969 1.309 10.206.99a19.406 19.406 0 0 0 8.943-3.188c2.726-1.806 5.057-4.577 6.992-8.314 1.402-2.709 2.228-5.292 2.477-7.749a18.752 18.752 0 0 0-.676-7.25c-.698-2.376-1.785-4.745-3.258-7.107-1.474-2.362-3.255-4.795-5.345-7.298a101.848 101.848 0 0 1-4.04-5.084c-1.158-1.566-2.074-3.028-2.749-4.384-.676-1.357-1.079-2.632-1.209-3.825-.13-1.192.095-2.35.675-3.47.532-1.028 1.276-1.818 2.231-2.37.955-.551 2.067-.874 3.335-.967 1.269-.093 2.686.058 4.253.455 1.566.396 3.203 1.036 4.91 1.92a33.033 33.033 0 0 1 3.79 2.318 34.895 34.895 0 0 1 3.721 3.022 32.646 32.646 0 0 1 3.313 3.581 25.3 25.3 0 0 1 2.591 3.948l7.231-13.965c-1.815-2.046-3.956-3.974-6.424-5.784-2.468-1.811-5.44-3.617-8.917-5.417-3.539-1.833-7.089-3.187-10.651-4.064-3.561-.877-6.964-1.128-10.209-.755-3.244.373-6.214 1.452-8.909 3.235-2.695 1.783-4.945 4.418-6.75 7.906-2.306 4.453-2.993 8.914-2.06 13.385.933 4.472 3.443 9.147 7.53 14.027a178.285 178.285 0 0 1 4.446 5.441c1.35 1.726 2.444 3.359 3.28 4.898.838 1.539 1.362 3.015 1.575 4.428.214 1.413-.019 2.774-.696 4.082a6.054 6.054 0 0 1-2.088 2.324c-.893.583-1.97.934-3.232 1.051-1.261.117-2.687-.019-4.277-.408-1.59-.389-3.331-1.074-5.225-2.054-3.229-1.672-6.132-3.896-8.71-6.672-2.578-2.776-4.629-6-6.153-9.671ZM50.243 49.865H72.2V36H11v13.865h21.85V111.6h17.393V49.865Z" fill="#fff"/></g><defs><clipPath id="a"><path fill="#fff" d="M0 0h128v128H0z"/></clipPath></defs></svg>